<svg xmlns="http://www.w3.org/2000/svg" xmlns:xlink="http://www.w3.org/1999/xlink"
    viewBox="0 0 1502 603.29">
    <defs>
        <style>
            .cls-1 {
            fill: #cbbba0;
            }

            .cls-1,
            .cls-2,
            .cls-3,
            .cls-4,
            .cls-5,
            .cls-6,
            .cls-7,
            .cls-8,
            .cls-9,
            .cls-10,
            .cls-11,
            .cls-12,
            .cls-13,
            .cls-14,
            .cls-15,
            .cls-16,
            .cls-17 {
            stroke: #1d1d1b;
            stroke-linecap: round;
            stroke-linejoin: round;
            stroke-width: 2px;
            }

            .cls-2 {
            fill: #878787;
            }

            .cls-18 {
            fill: #fffd50;
            }

            .cls-3 {
            fill: #b17f4a;
            }

            .cls-4 {
            fill: #1d1d1b;
            }

            .cls-5 {
            fill: #a48a7b;
            }

            .cls-6 {
            fill: #7b6a58;
            }

            .cls-19 {
            opacity: .75;
            }

            .cls-20 {
            fill: #e94e1b;
            }

            .cls-20,
            .cls-8 {
            opacity: .5;
            }

            .cls-7 {
            fill: #fff;
            }

            .cls-8,
            .cls-16 {
            fill: #8ae6ff;
            }

            .cls-9 {
            fill: #f8f39f;
            }

            .cls-10 {
            fill: #fbffc9;
            }

            .cls-11 {
            fill: #ca9e67;
            }

            .cls-12 {
            fill: url(#Gradiente_sem_nome_2);
            }

            .cls-13 {
            fill: none;
            }

            .cls-14 {
            fill: #706f6f;
            }

            .cls-15 {
            fill: #ea5b0c;
            }

            .cls-16 {
            opacity: .25;
            }

            .cls-17 {
            fill: #312783;
            }
        </style>
        <linearGradient id="Gradiente_sem_nome_2" x1="751.39" y1="-8.42" x2="750.58" y2="529.39"
            gradientUnits="userSpaceOnUse">
            <stop offset="0" stop-color="#292341" />
            <stop offset=".44" stop-color="#2a2341" />
            <stop offset=".61" stop-color="#312543" />
            <stop offset=".73" stop-color="#3d2947" />
            <stop offset=".83" stop-color="#4e2e4b" />
            <stop offset=".91" stop-color="#653552" />
            <stop offset=".99" stop-color="#7f3d5a" />
            <stop offset="1" stop-color="#863f5c" />
        </linearGradient>
    </defs>
    <g id="slide_1_background">
        <rect class="cls-12" x="1" y="1" width="1500" height="500" />
        <g id="estrelas" class="cls-19">
            <polygon class="cls-18"
                points="136.71 118.86 127.13 116.8 120.01 123.53 119 113.78 110.4 109.09 119.36 105.12 121.17 95.48 127.71 102.78 137.43 101.52 132.52 110 136.71 118.86" />
            <polygon class="cls-18"
                points="60.21 150.25 50.63 148.2 43.51 154.93 42.5 145.18 33.9 140.48 42.86 136.51 44.67 126.88 51.21 134.17 60.93 132.92 56.02 141.4 60.21 150.25" />
            <polygon class="cls-18"
                points="81.61 67.78 72.02 65.72 64.9 72.45 63.89 62.7 55.29 58.01 64.25 54.04 66.06 44.4 72.6 51.7 82.32 50.44 77.41 58.92 81.61 67.78" />
            <polygon class="cls-18"
                points="173.72 229.35 178.05 238.13 187.75 239.54 180.73 246.38 182.39 256.04 173.72 251.48 165.04 256.04 166.7 246.38 159.68 239.54 169.38 238.13 173.72 229.35" />
            <polygon class="cls-18"
                points="110.4 256.04 114.73 264.83 124.43 266.24 117.41 273.08 119.07 282.74 110.4 278.18 101.72 282.74 103.38 273.08 96.36 266.24 106.06 264.83 110.4 256.04" />
            <polygon class="cls-18"
                points="96.36 195.52 100.7 204.3 110.4 205.71 103.38 212.55 105.04 222.21 96.36 217.65 87.69 222.21 89.34 212.55 82.32 205.71 92.02 204.3 96.36 195.52" />
            <polygon class="cls-18"
                points="41.25 235.56 45.59 244.35 55.29 245.76 48.27 252.6 49.93 262.26 41.25 257.7 32.58 262.26 34.24 252.6 27.22 245.76 36.92 244.35 41.25 235.56" />
            <polygon class="cls-18"
                points="258.16 114.21 262.5 122.99 272.2 124.4 265.18 131.24 266.84 140.9 258.16 136.34 249.49 140.9 251.14 131.24 244.12 124.4 253.82 122.99 258.16 114.21" />
            <polygon class="cls-18"
                points="299.3 22.58 303.64 31.37 313.34 32.78 306.32 39.62 307.98 49.28 299.3 44.72 290.63 49.28 292.29 39.62 285.27 32.78 294.97 31.37 299.3 22.58" />
            <polygon class="cls-18"
                points="395.94 30.2 400.28 38.99 409.98 40.4 402.96 47.24 404.62 56.9 395.94 52.34 387.27 56.9 388.92 47.24 381.91 40.4 391.61 38.99 395.94 30.2" />
            <polygon class="cls-18"
                points="481.29 114.21 485.62 122.99 495.32 124.4 488.3 131.24 489.96 140.9 481.29 136.34 472.61 140.9 474.27 131.24 467.25 124.4 476.95 122.99 481.29 114.21" />
            <polygon class="cls-18"
                points="563.95 158.93 568.28 167.71 577.98 169.12 570.96 175.96 572.62 185.62 563.95 181.06 555.27 185.62 556.93 175.96 549.91 169.12 559.61 167.71 563.95 158.93" />
            <polygon class="cls-18"
                points="571.56 208.86 575.9 217.65 585.6 219.06 578.58 225.9 580.24 235.56 571.56 231 562.89 235.56 564.55 225.9 557.53 219.06 567.23 217.65 571.56 208.86" />
            <polygon class="cls-18"
                points="658.98 252.4 663.32 261.18 673.02 262.59 666 269.43 667.66 279.09 658.98 274.53 650.31 279.09 651.96 269.43 644.95 262.59 654.64 261.18 658.98 252.4" />
            <polygon class="cls-18"
                points="630.91 195.52 635.25 204.3 644.95 205.71 637.93 212.55 639.58 222.21 630.91 217.65 622.23 222.21 623.89 212.55 616.87 205.71 626.57 204.3 630.91 195.52" />
            <polygon class="cls-18"
                points="644.95 127.55 649.28 136.34 658.98 137.75 651.96 144.59 653.62 154.25 644.95 149.69 636.27 154.25 637.93 144.59 630.91 137.75 640.61 136.34 644.95 127.55" />
            <polygon class="cls-18"
                points="687.83 178.37 692.16 187.16 701.86 188.57 694.84 195.41 696.5 205.07 687.83 200.51 679.15 205.07 680.81 195.41 673.79 188.57 683.49 187.16 687.83 178.37" />
            <polygon class="cls-18"
                points="710.14 100.86 714.48 109.64 724.18 111.05 717.16 117.89 718.81 127.55 710.14 122.99 701.47 127.55 703.12 117.89 696.1 111.05 705.8 109.64 710.14 100.86" />
            <polygon class="cls-18"
                points="730.38 151.67 734.72 160.46 744.42 161.87 737.4 168.71 739.05 178.37 730.38 173.81 721.71 178.37 723.36 168.71 716.34 161.87 726.04 160.46 730.38 151.67" />
            <polygon class="cls-18"
                points="549.91 72.56 554.25 81.35 563.95 82.76 556.93 89.6 558.58 99.26 549.91 94.7 541.23 99.26 542.89 89.6 535.87 82.76 545.57 81.35 549.91 72.56" />
            <polygon class="cls-18"
                points="487.34 31.05 491.68 39.84 501.38 41.25 494.36 48.09 496.02 57.75 487.34 53.19 478.67 57.75 480.32 48.09 473.31 41.25 483.01 39.84 487.34 31.05" />
            <polygon class="cls-18"
                points="630.91 53.44 635.25 62.23 644.95 63.63 637.93 70.48 639.58 80.14 630.91 75.57 622.23 80.14 623.89 70.48 616.87 63.63 626.57 62.23 630.91 53.44" />
            <polygon class="cls-18"
                points="701.86 22.58 706.2 31.37 715.9 32.78 708.88 39.62 710.54 49.28 701.86 44.72 693.19 49.28 694.84 39.62 687.83 32.78 697.52 31.37 701.86 22.58" />
            <polygon class="cls-18"
                points="817.67 102.38 822.01 111.17 831.71 112.58 824.69 119.42 826.34 129.08 817.67 124.52 809 129.08 810.65 119.42 803.63 112.58 813.33 111.17 817.67 102.38" />
            <polygon class="cls-18"
                points="893.44 89.03 897.77 97.82 907.47 99.23 900.46 106.07 902.11 115.73 893.44 111.17 884.76 115.73 886.42 106.07 879.4 99.23 889.1 97.82 893.44 89.03" />
            <polygon class="cls-18"
                points="924.94 35.93 929.28 44.72 938.98 46.13 931.96 52.97 933.61 62.63 924.94 58.07 916.27 62.63 917.92 52.97 910.9 46.13 920.6 44.72 924.94 35.93" />
            <polygon class="cls-18"
                points="841.31 27.08 845.65 35.87 855.35 37.28 848.33 44.12 849.98 53.78 841.31 49.22 832.64 53.78 834.29 44.12 827.27 37.28 836.97 35.87 841.31 27.08" />
            <polygon class="cls-18"
                points="867.3 178.37 871.63 187.16 881.33 188.57 874.31 195.41 875.97 205.07 867.3 200.51 858.62 205.07 860.28 195.41 853.26 188.57 862.96 187.16 867.3 178.37" />
            <polygon class="cls-18"
                points="888.96 239.05 893.3 247.83 903 249.24 895.98 256.08 897.64 265.74 888.96 261.18 880.29 265.74 881.95 256.08 874.93 249.24 884.63 247.83 888.96 239.05" />
            <polygon class="cls-18"
                points="938.98 158.93 943.31 167.71 953.01 169.12 945.99 175.96 947.65 185.62 938.98 181.06 930.3 185.62 931.96 175.96 924.94 169.12 934.64 167.71 938.98 158.93" />
            <polygon class="cls-18"
                points="974.82 96.35 979.16 105.14 988.86 106.55 981.84 113.39 983.5 123.05 974.82 118.49 966.15 123.05 967.8 113.39 960.78 106.55 970.48 105.14 974.82 96.35" />
            <polygon class="cls-18"
                points="1121.82 172.27 1126.15 181.06 1135.85 182.47 1128.83 189.31 1130.49 198.97 1121.82 194.41 1113.14 198.97 1114.8 189.31 1107.78 182.47 1117.48 181.06 1121.82 172.27" />
            <polygon class="cls-18"
                points="1185.8 205.83 1190.14 214.62 1199.84 216.03 1192.82 222.87 1194.48 232.53 1185.8 227.97 1177.13 232.53 1178.79 222.87 1171.77 216.03 1181.47 214.62 1185.8 205.83" />
            <polygon class="cls-18"
                points="1081.28 87.51 1085.62 96.3 1095.31 97.7 1088.3 104.55 1089.95 114.21 1081.28 109.64 1072.6 114.21 1074.26 104.55 1067.24 97.7 1076.94 96.3 1081.28 87.51" />
            <polygon class="cls-18"
                points="1171.77 127.55 1176.11 136.34 1185.8 137.75 1178.79 144.59 1180.44 154.25 1171.77 149.69 1163.09 154.25 1164.75 144.59 1157.73 137.75 1167.43 136.34 1171.77 127.55" />
            <polygon class="cls-18"
                points="1228.12 158.93 1232.46 167.71 1242.16 169.12 1235.14 175.96 1236.8 185.62 1228.12 181.06 1219.45 185.62 1221.11 175.96 1214.09 169.12 1223.79 167.71 1228.12 158.93" />
            <polygon class="cls-18"
                points="1303.18 182.17 1307.52 190.95 1317.21 192.36 1310.2 199.2 1311.85 208.86 1303.18 204.3 1294.5 208.86 1296.16 199.2 1289.14 192.36 1298.84 190.95 1303.18 182.17" />
            <polygon class="cls-18"
                points="1458.11 225.29 1462.44 234.08 1472.14 235.49 1465.13 242.33 1466.78 251.99 1458.11 247.43 1449.43 251.99 1451.09 242.33 1444.07 235.49 1453.77 234.08 1458.11 225.29" />
            <polygon class="cls-18"
                points="1365.21 217.06 1369.55 225.85 1379.25 227.26 1372.23 234.1 1373.89 243.76 1365.21 239.2 1356.54 243.76 1358.2 234.1 1351.18 227.26 1360.88 225.85 1365.21 217.06" />
            <polygon class="cls-18"
                points="1242.16 102.38 1246.5 111.17 1256.2 112.58 1249.18 119.42 1250.84 129.08 1242.16 124.52 1233.49 129.08 1235.14 119.42 1228.12 112.58 1237.82 111.17 1242.16 102.38" />
            <polygon class="cls-18"
                points="1303.18 119.82 1307.52 128.61 1317.21 130.02 1310.2 136.86 1311.85 146.52 1303.18 141.96 1294.5 146.52 1296.16 136.86 1289.14 130.02 1298.84 128.61 1303.18 119.82" />
            <polygon class="cls-18"
                points="1309.45 69.83 1313.79 78.62 1323.48 80.03 1316.47 86.87 1318.12 96.53 1309.45 91.97 1300.77 96.53 1302.43 86.87 1295.41 80.03 1305.11 78.62 1309.45 69.83" />
            <polygon class="cls-18"
                points="1417.29 168.82 1421.62 177.61 1431.32 179.01 1424.3 185.86 1425.96 195.52 1417.29 190.95 1408.61 195.52 1410.27 185.86 1403.25 179.01 1412.95 177.61 1417.29 168.82" />
            <polygon class="cls-18"
                points="1476.27 100.86 1480.6 109.64 1490.3 111.05 1483.28 117.89 1484.94 127.55 1476.27 122.99 1467.59 127.55 1469.25 117.89 1462.23 111.05 1471.93 109.64 1476.27 100.86" />
            <polygon class="cls-18"
                points="1386.43 115.73 1390.77 124.52 1400.46 125.93 1393.45 132.77 1395.1 142.43 1386.43 137.87 1377.75 142.43 1379.41 132.77 1372.39 125.93 1382.09 124.52 1386.43 115.73" />
            <polygon class="cls-18"
                points="1135.85 35.93 1140.19 44.72 1149.89 46.13 1142.87 52.97 1144.53 62.63 1135.85 58.07 1127.18 62.63 1128.83 52.97 1121.82 46.13 1131.52 44.72 1135.85 35.93" />
            <polygon class="cls-18"
                points="1199.84 49.28 1204.18 58.07 1213.88 59.48 1206.86 66.32 1208.52 75.98 1199.84 71.42 1191.17 75.98 1192.82 66.32 1185.8 59.48 1195.5 58.07 1199.84 49.28" />
            <polygon class="cls-18"
                points="1270.23 31.74 1274.57 40.53 1284.27 41.94 1277.25 48.78 1278.91 58.44 1270.23 53.88 1261.56 58.44 1263.21 48.78 1256.2 41.94 1265.9 40.53 1270.23 31.74" />
            <polygon class="cls-18"
                points="1027.56 37.65 1031.9 46.43 1041.59 47.84 1034.58 54.69 1036.23 64.34 1027.56 59.78 1018.88 64.34 1020.54 54.69 1013.52 47.84 1023.22 46.43 1027.56 37.65" />
            <polygon class="cls-18"
                points="1002.89 158.93 1007.23 167.71 1016.93 169.12 1009.91 175.96 1011.57 185.62 1002.89 181.06 994.22 185.62 995.88 175.96 988.86 169.12 998.56 167.71 1002.89 158.93" />
            <polygon class="cls-18"
                points="1049.21 140.9 1053.54 149.69 1063.24 151.1 1056.22 157.94 1057.88 167.6 1049.21 163.04 1040.53 167.6 1042.19 157.94 1035.17 151.1 1044.87 149.69 1049.21 140.9" />
            <polygon class="cls-18"
                points="1135.85 246.19 1140.19 254.97 1149.89 256.38 1142.87 263.22 1144.53 272.88 1135.85 268.32 1127.18 272.88 1128.83 263.22 1121.82 256.38 1131.52 254.97 1135.85 246.19" />
            <polygon class="cls-18"
                points="1252.07 252.4 1256.41 261.18 1266.11 262.59 1259.09 269.43 1260.75 279.09 1252.07 274.53 1243.4 279.09 1245.05 269.43 1238.04 262.59 1247.73 261.18 1252.07 252.4" />
            <polygon class="cls-18"
                points="938.98 220.22 943.31 229.01 953.01 230.42 945.99 237.26 947.65 246.92 938.98 242.36 930.3 246.92 931.96 237.26 924.94 230.42 934.64 229.01 938.98 220.22" />
            <polygon class="cls-18"
                points="765.27 69.83 769.61 78.62 779.31 80.03 772.29 86.87 773.95 96.53 765.27 91.97 756.6 96.53 758.25 86.87 751.24 80.03 760.93 78.62 765.27 69.83" />
            <polygon class="cls-18"
                points="765.27 10.36 769.61 19.15 779.31 20.56 772.29 27.4 773.95 37.06 765.27 32.5 756.6 37.06 758.25 27.4 751.24 20.56 760.93 19.15 765.27 10.36" />
            <polygon class="cls-18"
                points="209.41 53.44 213.75 62.23 223.45 63.63 216.43 70.48 218.09 80.14 209.41 75.57 200.74 80.14 202.39 70.48 195.38 63.63 205.08 62.23 209.41 53.44" />
            <polygon class="cls-18"
                points="195.38 165.02 199.71 173.81 209.41 175.22 202.39 182.06 204.05 191.72 195.38 187.16 186.7 191.72 188.36 182.06 181.34 175.22 191.04 173.81 195.38 165.02" />
            <polygon class="cls-18"
                points="304.55 178.37 308.89 187.16 318.59 188.57 311.57 195.41 313.23 205.07 304.55 200.51 295.88 205.07 297.54 195.41 290.52 188.57 300.22 187.16 304.55 178.37" />
            <polygon class="cls-18"
                points="264.8 230.52 269.13 239.31 278.83 240.72 271.81 247.56 273.47 257.22 264.8 252.66 256.12 257.22 257.78 247.56 250.76 240.72 260.46 239.31 264.8 230.52" />
            <polygon class="cls-18"
                points="355.88 209.16 360.21 217.95 369.91 219.36 362.89 226.2 364.55 235.86 355.88 231.3 347.2 235.86 348.86 226.2 341.84 219.36 351.54 217.95 355.88 209.16" />
            <polygon class="cls-18"
                points="327.8 269.39 332.14 278.18 341.84 279.59 334.82 286.43 336.48 296.09 327.8 291.53 319.13 296.09 320.78 286.43 313.77 279.59 323.47 278.18 327.8 269.39" />
            <polygon class="cls-18"
                points="341.84 96.35 346.18 105.14 355.88 106.55 348.86 113.39 350.51 123.05 341.84 118.49 333.16 123.05 334.82 113.39 327.8 106.55 337.5 105.14 341.84 96.35" />
            <polygon class="cls-18"
                points="409.98 151.81 414.32 160.6 424.02 162.01 417 168.85 418.65 178.51 409.98 173.95 401.3 178.51 402.96 168.85 395.94 162.01 405.64 160.6 409.98 151.81" />
            <polygon class="cls-18"
                points="481.29 191.72 485.62 200.51 495.32 201.91 488.3 208.76 489.96 218.42 481.29 213.85 472.61 218.42 474.27 208.76 467.25 201.91 476.95 200.51 481.29 191.72" />
            <polygon class="cls-18"
                points="430.18 222.21 434.52 231 444.22 232.41 437.2 239.25 438.86 248.91 430.18 244.35 421.51 248.91 423.16 239.25 416.15 232.41 425.84 231 430.18 222.21" />
            <polygon class="cls-18"
                points="521.84 242.7 526.17 251.48 535.87 252.89 528.85 259.73 530.51 269.39 521.84 264.83 513.16 269.39 514.82 259.73 507.8 252.89 517.5 251.48 521.84 242.7" />
        </g>
    </g>
    <g id="slide_1_components">
        <g id="cabeça">
            <path class="cls-7"
                d="m856.62,289.11l-5.16,4.49-12.65,11-10.78,9.37c-.24.21-.5.42-.77.63-1.38,1.07-3.14,2.16-5.18,3.24-.27.15-.54.29-.83.43-.56.29-1.14.58-1.74.86-.07.04-.15.08-.22.11-.53.25-1.07.5-1.62.75-1.9.85-3.93,1.7-6.06,2.54-.36.14-.71.28-1.07.41-.72.28-1.44.55-2.18.82-1.47.55-2.97,1.08-4.49,1.61-1.9.66-3.83,1.31-5.76,1.93-1.19.38-2.38.76-3.55,1.12-1.18.37-2.36.73-3.52,1.08-1.14.34-2.26.67-3.36.99-.3.09-.59.18-.89.26-.85.25-1.69.49-2.51.72-.72.21-1.43.41-2.13.6-1.4.39-2.74.76-4.01,1.1-.64.17-1.26.34-1.86.5-.13.03-.25.06-.37.1-.38.1-.75.19-1.11.29-.09.02-.18.05-.27.07-.23.06-.46.12-.68.18-.07.02-.15.04-.22.06-.24.06-.48.12-.71.18-.67.17-2.28.35-4.2.52-4.01.36-9.38.69-10.28.89.01,0,.02,0,.03-.02,4.39-2.76,9.37-6.31,14.92-10.87l-1.33-1.41c.63-.18,1.26-.37,1.9-.58.51-.16,1.02-.32,1.53-.5.21-.06.41-.13.62-.2.51-.18,1.02-.36,1.53-.55.08-.02.17-.06.27-.1.58-.2,1.17-.42,1.76-.66.05-.01.1-.03.15-.06.61-.23,1.22-.47,1.83-.73.52-.2,1.05-.42,1.58-.65.55-.23,1.11-.47,1.67-.72,3.73-1.65,7.5-3.52,11.29-5.58.71-.39,1.43-.78,2.14-1.18.74-.41,1.47-.83,2.21-1.25.69-.4,1.39-.8,2.08-1.21,1.51-.89,3.02-1.8,4.53-2.74.73-.45,1.46-.91,2.19-1.37.12-.07.24-.15.37-.23,1.32-.84,2.64-1.7,3.96-2.57,5.78-3.81,11.43-7.84,16.78-11.85.51-.38,1.03-.76,1.53-1.15.81-.61,1.62-1.23,2.42-1.84,2.38-1.83,4.69-3.64,6.91-5.42l-53.3-58.19c1.85-2.9,2.03-5.91.81-9.21-2.55-6.91-11.23-15.06-23.51-25.98-7.03-6.25-10.2-12.23-11.42-17.25-.2-.8-.34-1.57-.44-2.31-.98-6.94,1.64-11.52,1.64-11.52,5.25-6.95,15.14-8.34,22.1-3.09l40.66,30.67c6.95,5.24,8.34,15.14,3.09,22.09l-10.48,13.89,43.15,47.12c.63.68,1.19,1.4,1.7,2.15,3.69,5.47,4.1,12.44,1.31,18.22Z" />
            <path class="cls-13" d="m788.01,224.33c-.12.2-.26.4-.4.6" />
            <path class="cls-4"
                d="m841.31,282.52c-2.22,1.78-4.53,3.59-6.91,5.42-.8.61-1.61,1.23-2.42,1.84-.5.39-1.02.77-1.53,1.15-5.35,4.01-11,8.04-16.78,11.85-1.32.87-2.63,1.72-3.96,2.57-.13.08-.25.16-.37.23-.73.46-1.46.92-2.19,1.37-1.51.94-3.02,1.85-4.53,2.74-.69.41-1.39.81-2.08,1.21-.74.42-1.47.84-2.21,1.25-.71.4-1.43.79-2.14,1.18-3.79,2.06-7.56,3.93-11.29,5.58-.56.25-1.12.49-1.67.72-.53.23-1.06.45-1.58.65-.61.26-1.22.5-1.83.73-.05.03-.1.05-.15.06-.59.23-1.18.45-1.76.66-.1.04-.19.08-.27.1-.51.19-1.02.37-1.53.55-.21.07-.41.14-.62.2-.51.18-1.02.34-1.53.5-.64.21-1.27.4-1.9.58l-24.44-25.95-12.87-13.66-21.61,20.36-3.31,3.12-35.61-38.89c-18.55-20.24-17.17-51.68,3.08-70.22l22.05-20.21c13.6-12.45,32.24-15.92,48.63-10.72,1.86.58,3.68,1.28,5.47,2.09.1.74.24,1.51.44,2.31,1.22,5.02,4.39,11,11.42,17.25,12.28,10.92,20.96,19.07,23.51,25.98,1.22,3.3,1.04,6.31-.81,9.21l53.3,58.19Z" />
        </g>
        <g id="roupa">
            <path class="cls-17"
                d="m921.51,594.14s-9.51,8.15-79.26,8.15h-122.3s1.6-33.43,13.66-33.27c0,0,107.68,3.69,125.68-3.38,0,0,25.39,1.61,43.71-2.57l18.51,31.07Z" />
            <path class="cls-2"
                d="m758.04,490.43c.48,14.62-12.06,22.5-12.06,22.5-14.14,12.86-12.37,56.09-12.37,56.09-12.06-.16-13.66,33.27-13.66,33.27h-9.81l.97-172.45s23.14,28.61,26.52,30.05c3.37,1.45,10.6,13.82,10.6,13.82,11.41,12.38,9.81,16.72,9.81,16.72Z" />
            <path class="cls-14"
                d="m903,563.07c-18.32,4.18-43.71,2.57-43.71,2.57-18,7.07-125.68,3.38-125.68,3.38,0,0-1.77-43.23,12.37-56.09,0,0,12.54-7.88,12.06-22.5,0,0,1.6-4.34-9.81-16.72,0,0-7.23-12.37-10.6-13.82-3.38-1.44-26.52-30.05-26.52-30.05l-6.11-10.45c-12.54-22.66,16.55-44.68,16.55-44.68-2.41-10.92,1.83-17.84,1.83-17.84,12.44-8.67,10.23-11.25,10.23-11.25,0,0,8.32.72,24.83-9.66.9-.2,6.27-.53,10.28-.89,1.92-.17,3.53-.35,4.2-.52.23-.06.47-.12.71-.18.07-.02.15-.04.22-.06.22-.06.45-.12.68-.18.09-.02.18-.05.27-.07.36-.1.73-.19,1.11-.29.12-.04.24-.07.37-.1.6-.16,1.22-.33,1.86-.5,1.27-.34,2.61-.71,4.01-1.1.7-.19,1.41-.39,2.13-.6.82-.23,1.66-.47,2.51-.72.3-.08.59-.17.89-.26,1.1-.32,2.22-.65,3.36-.99,1.16-.35,2.34-.71,3.52-1.08,1.17-.36,2.36-.74,3.55-1.12,1.93-.62,3.86-1.27,5.76-1.93,1.52-.53,3.02-1.06,4.49-1.61.74-.27,1.46-.54,2.18-.82.36-.13.71-.27,1.07-.41,2.13-.84,4.16-1.69,6.06-2.54,0,0,24.26,61.9,62.19,64.58-.86,10.72,6.64,46.5,6.64,46.5,6.43,11.57,6.43,30.43,6.43,30.43,0,6.43,1.93,12,1.93,12,7.5,22.29,6.43,66.64,6.43,66.64-3,10.72,1.71,22.93,1.71,22.93Z" />
            <path class="cls-2"
                d="m773.39,325.07c-5.55,4.56-10.53,8.11-14.92,10.87,0,.01-.02.01-.03.02-16.51,10.38-24.83,9.66-24.83,9.66.64-9-16.56-26.19-16.56-26.19.85-1.38,1.26-2.75,1.36-4.07,0,0,14.51,4.35,29.21-17.65l24.44,25.95,1.33,1.41Z" />
            <path class="cls-1"
                d="m747.62,297.71c-14.7,22-29.21,17.65-29.21,17.65.46-5.96-5.27-10.95-5.27-10.95l21.61-20.36,12.87,13.66Z" />
            <path class="cls-2"
                d="m1032.21,283.43c-11.57,5.57-22.5,16.93-22.5,16.93-10.71,18-69.64,51-69.64,51l-60.21,33.21c-37.93-2.68-62.19-64.58-62.19-64.58.55-.25,1.09-.5,1.62-.75.07-.03.15-.07.22-.11.6-.28,1.18-.57,1.74-.86.29-.14.56-.28.83-.43,2.04-1.08,3.8-2.17,5.18-3.24.27-.21.53-.42.77-.63l10.78-9.37c5.88,1.03,16.62-1.03,16.62-1.03,6.43-3.43,23.14-5.14,23.14-5.14,15.64,0,24.64-5.79,24.64-5.79,23.36-18.21,36.86-21.85,36.86-21.85,0,0,12.22-3.22,19.07-8.15,6.86-4.93,39.65-24,39.65-24,0,0,30.52,6.86,33.42,44.79Z" />
            <path class="cls-17"
                d="m1049.21,243.04c1.28,2.17,2.57,4.43,4,6.75,7.29,11.78,2.36,16.07,2.36,16.07,0,0-11.78,12-23.36,17.57-2.9-37.93-33.42-44.79-33.42-44.79-1.29-1.07,0-2.78,0-2.78,23.35-16.93,27.21-14.36,27.21-14.36,2.53,1,4.75,2.08,6.73,3.25" />
            <path class="cls-13" d="m1032.73,224.75c8.26,4.87,12.28,11.14,16.48,18.29" />
        </g>
        <g id="mao">
            <path class="cls-5"
                d="m1088.37,219.16c-.54,1.21-1.24,2.34-2.08,3.35-.85,1.02-1.84,1.93-2.95,2.68-2.61,1.77-6.82,4.18-11.1,5,1.21-1.25,2.38-2.56,3.5-3.91,3.25-1.79,6.46-3.94,8.59-7.16.06-.08.11-.16.16-.24.83-1.27,1.37-2.69,1.98-4.06,1.48-2.44.95-3.99-1.43-5.51l-.3-.22c-.33-.31-.99-.31-1.31.06-.15.11-.28.46-.29.59-.39,1.96-.98,3.86-1.75,5.69-2.23,5.4-5.86,10.29-9.63,14.69-.1.11-.05.24.04.29-.21.32-.41.6-.59.84-.81,1.07-1.96,1.81-3.24,2.32-2.94,1.2-6.57,1.17-8.25,1.08-.62-.04-1.22.17-1.68.58l-8.83,7.81c-4.2-7.15-8.22-13.42-16.48-18.29,0,0,11.27-4.21,16.63-15.89,5.35-11.68,12.75-16.29,12.75-16.29,0,0,4.93-3,13.5,2.25s15.1,12.32,15.1,12.32c0,0,2.21,1.85-2.34,12.02Z" />
            <path class="cls-6"
                d="m1086.47,214.82c-.61,1.37-1.15,2.79-1.98,4.06-.05.08-.1.16-.16.24-2.13,3.22-5.34,5.37-8.59,7.16-1.12,1.35-2.29,2.66-3.5,3.91-.11.03-.23.05-.34.07-.03.05-.07.1-.1.15-.09-.05-.14-.18-.04-.29,3.77-4.4,7.4-9.29,9.63-14.69.77-1.83,1.36-3.73,1.75-5.69.01-.13.14-.48.29-.59.32-.37.98-.37,1.31-.06l.3.22c2.38,1.52,2.91,3.07,1.43,5.51Z" />
        </g>
        <g id="lamparina">
            <path class="cls-11"
                d="m1115.92,304.3s-.05-.04-.08-.07c-1.25-1.16-3.54-2.42-6.66-3.72-7.77-3.27-20.7-6.77-35.53-9.37-15.16-2.67-28.78-3.79-37.22-3.3h-.01c-2.89.16-5.16.51-6.69,1.05,4.78-6.01,11.1-10.8,18.36-13.94,3.82-1.65,7.9-2.85,12.15-3.52.38.22.72.42,1.04.59,0,.01.01.01.01.01.19.11.36.2.53.31,1.62.83,4.15,1.61,12.84,1.98.28,0,.57.02.87.03,10.76.4,11.04,1.09,15.67,1.75,3.26,1.6,6.29,3.52,9.05,5.72,7.4,5.87,12.9,13.69,15.67,22.48Z" />
            <path class="cls-11"
                d="m1102.8,256.1c-.25,8.47-4.83,15.85-11.6,20-4.63-.66-4.91-1.35-15.67-1.75-.3-.01-.59-.02-.87-.03-8.69-.37-11.22-1.15-12.84-1.98-.17-.11-.34-.2-.53-.31,0,0-.01,0-.01-.01-.68-.38-1.31-.88-1.8-1.49-3.31-4.16-5.3-9.43-5.3-15.17,0-1.61.16-3.18.45-4.7,5.43-4.73,13.16-7.69,21.73-7.69,11.51,0,21.48,5.33,26.44,13.13Z" />
            <path class="cls-11"
                d="m1102.83,390.19v.43c-.67,4.08-20.44,4.24-44.15.37-23.72-3.87-42.41-10.31-41.75-14.39.08-.5.45-.94,1.08-1.32,1.35-.82,3.88-1.36,7.34-1.63h.01c8.08-.65,21.15.21,35.72,2.59,14.26,2.32,26.71,5.58,34.22,8.7,3.01,1.24,5.23,2.46,6.45,3.59.63.59,1,1.14,1.08,1.66Z" />
            <path class="cls-11"
                d="m1116.94,305.91v.43c-.05.21-.14.4-.29.59-.06.08-.12.15-.2.21l-1.36,2.29v-.43c-.03-.29-.16-.59-.38-.9-.17-.25-.4-.51-.69-.78-1.22-1.15-3.47-2.41-6.52-3.71-7.61-3.27-20.27-6.77-34.8-9.36-14.84-2.66-28.18-3.78-36.45-3.28h-.01c-3.54.2-6.14.69-7.53,1.49-.07.04-.14.08-.2.12-.53.34-.85.73-.93,1.17v-3.13c.09-.49.49-.93,1.15-1.29.28-.16.62-.31,1-.44,1.53-.54,3.8-.89,6.69-1.05h.01c8.44-.49,22.06.63,37.22,3.3,14.83,2.6,27.76,6.1,35.53,9.37,3.12,1.3,5.41,2.56,6.66,3.72.03.03.06.05.08.07h0c.6.58.95,1.11,1.02,1.61Z" />
            <path class="cls-11"
                d="m1115.1,309v.43c-.14.71-.86,1.28-2.08,1.73-.69-.68-2.73-1.35-4.05-2.09-.92-.52-1.99-1.04-3.18-1.57-7.25-3.26-19.3-6.75-33.14-9.33-14.13-2.65-26.83-3.75-34.71-3.25h-.01c-1.15.07-2.19.18-3.12.32h-.02c-.27.04-.54.09-.79.13-.27.05-.52.11-.76.16-.13.03-.27.06-.43.1-1.07.27-2.63.75-3.15,1.06-1.5-1.07-2.24-2.07-2.08-2.94.08-.44.4-.83.93-1.17.06-.04.13-.08.2-.12,1.39-.8,3.99-1.29,7.53-1.49h.01c8.27-.5,21.61.62,36.45,3.28,14.53,2.59,27.19,6.09,34.8,9.36,3.05,1.3,5.3,2.56,6.52,3.71.29.27.52.53.69.78.22.31.35.61.39.9Z" />
            <path class="cls-3"
                d="m1034.81,295.24l-.66,4.24-.38,2.5c-2.82-1.56-4.31-3.04-4.09-4.26l-.02-.93v-.1c.52-.31,2.08-.79,3.15-1.06.16-.04.3-.07.43-.1.24-.05.49-.11.76-.16.25-.04.52-.09.79-.13h.02Z" />
            <g id="vela">
                <path class="cls-10"
                    d="m1081.23,341.85l-3.76,24.85-14.54-4.86-14.11-.18,3.82-19.54c.45-2.29,2.4-3.97,4.72-4.08l5.57-.25,3.7-.17,3.05-.14,7.32-.33c2.58-.11,4.62,2.15,4.23,4.7Z" />
                <path class="cls-15"
                    d="m1069.18,334.38c.16,1.91,1.91,2.36.5,3.1l-3.05.14-3.7.17s1.47-1.97,0-4.7c-1.47-2.73,4.16-11.41,4.16-11.41,0,0,3.05,4.86,3.37,8.06.33,3.19-1.44,2.71-1.28,4.64Z" />
                <path class="cls-13" d="m1069.68,337.48s-.01.01-.02.01" />
            </g>
            <path class="cls-3"
                d="m1113.02,311.17v2.15c-.23,1.21-2.1,2.05-5.24,2.5l.31-1.79.26-1.46.62-3.5c1.32.74,3.36,1.41,4.05,2.09h0Z" />
            <path class="cls-11"
                d="m1102.83,387.22v2.97c-.08-.52-.45-1.07-1.08-1.66-1.22-1.13-3.44-2.35-6.45-3.59-7.51-3.12-19.96-6.38-34.22-8.7-14.57-2.38-27.64-3.24-35.72-2.59h-.01c-3.46.27-5.99.81-7.34,1.63-.63.38-1,.82-1.08,1.32v-3.4c.11-.66.71-1.21,1.73-1.66.63-.27,1.41-.51,2.35-.71.14-.03.29-.06.44-.09,7.24-1.41,22.4-.72,39.63,2.09,17.38,2.83,32.07,7.05,38.41,10.7.31.18.6.35.86.53.63.41,1.15.81,1.54,1.2.71.7,1.04,1.35.94,1.96Z" />
            <path class="cls-11"
                d="m1100.44,382.25l-.09,1.81c-.26-.18-.55-.35-.86-.53-6.34-3.65-21.03-7.87-38.41-10.7-17.23-2.81-32.39-3.5-39.63-2.09-.15.03-.3.06-.44.09v-1.55c.14-.86,1.07-1.56,2.65-2.09,5.91-1.97,20.97-1.63,38.27,1.19,15.55,2.54,28.74,6.4,34.86,9.88,2.52,1.43,3.85,2.8,3.65,3.99Z" />
            <line class="cls-13" x1="1102.83" y1="390.62" x2="1102.83" y2="390.19" />
            <polygon class="cls-16"
                points="1071.91 303.01 1070.4 312.94 1068.64 324.47 1066.63 337.62 1062.93 361.84 1048.82 361.66 1024.57 361.34 1033.77 301.98 1034.15 299.48 1071.91 303.01" />
            <path class="cls-8"
                d="m1072.65,298.17l-.74,4.84-37.76-3.53.66-4.24c.93-.14,1.97-.25,3.12-.32h.01c7.88-.5,20.58.6,34.71,3.25Z" />
            <path class="cls-8"
                d="m1062.93,361.84l-.28,1.82-.3,1.96-.42,2.76c-17.3-2.82-32.36-3.16-38.27-1.19l.91-5.85,24.25.32,14.11.18Z" />
            <line class="cls-13" x1="1023.66" y1="367.2" x2="1023.66" y2="367.19" />
            <polygon class="cls-16"
                points="1108.09 314.03 1107.78 315.82 1097.64 373.44 1077.47 366.7 1062.93 361.84 1066.63 337.62 1068.64 324.47 1070.4 312.94 1071.91 303.01 1108.09 314.03" />
            <path class="cls-8"
                d="m1108.97,309.07l-.62,3.5-.26,1.46-36.18-11.02.74-4.84c13.84,2.58,25.89,6.07,33.14,9.33,1.19.53,2.26,1.05,3.18,1.57Z" />
            <path class="cls-8"
                d="m1097.64,373.44l-.85,4.82c-6.12-3.48-19.31-7.34-34.86-9.88l.42-2.76.3-1.96.28-1.82,14.54,4.86,20.17,6.74Z" />
            <path class="cls-13"
                d="m1090.29,249.57c.1-1.26.18-2.49.21-3.68h0c.38-10.34-1.45-17.88-4.21-23.38" />
            <polyline class="cls-13" points="1067.97 233.57 1067.74 244.01 1067.57 251.82" />
        </g>
        <g id="moon">
            <path class="cls-9"
                d="m1470.45,77.81c0,34.85-28.25,63.09-63.09,63.09-18.06,0-34.34-7.59-45.85-19.75-4.79-5.06-8.75-10.92-11.66-17.35-3.58-7.92-5.58-16.72-5.58-25.99,0-30.48,21.62-55.91,50.37-61.8,4.11-.84,8.36-1.28,12.72-1.28,6.37,0,12.52.94,18.31,2.7,25.91,7.84,44.78,31.91,44.78,60.38Z" />
            <path class="cls-20"
                d="m1367.79,111.46c0,4.32-2.58,8.03-6.28,9.69-4.79-5.06-8.75-10.92-11.66-17.35,1.9-1.83,4.48-2.94,7.33-2.94,5.86,0,10.61,4.74,10.61,10.6Z" />
            <circle class="cls-20" cx="1383.54" cy="89.29" r="9.16" />
            <circle class="cls-20" cx="1454.35" cy="74.23" r="7.88" />
            <circle class="cls-20" cx="1417.29" cy="118.78" r="7.31" />
            <path class="cls-20"
                d="m1425.99,20.62c0,8.84-7.17,16.01-16.02,16.01s-16.01-7.17-16.01-16.01c0-1.6.24-3.15.68-4.61,4.11-.84,8.36-1.28,12.72-1.28,6.37,0,12.52.94,18.31,2.7.21,1.03.32,2.1.32,3.19Z" />
            <circle class="cls-20" cx="1365.21" cy="62.63" r="5.91" />
            <circle class="cls-20" cx="1422.13" cy="49.28" r="3.86" />
            <circle class="cls-20" cx="1407.36" cy="74.23" r="3.59" />
            <circle class="cls-20" cx="1424.6" cy="93.8" r="2.73" />
            <circle class="cls-20" cx="1381.25" cy="37.92" r="2" />
        </g>
    </g>
</svg>